<svg xmlns="http://www.w3.org/2000/svg" viewBox="0 0 64 64" role="img" aria-label="Logo portfolio">
  <defs>
    <linearGradient id="markGradient" x1="10" y1="54" x2="54" y2="10" gradientUnits="userSpaceOnUse">
      <stop offset="0" stop-color="#0f766e"/>
      <stop offset="0.52" stop-color="#2563eb"/>
      <stop offset="1" stop-color="#f59e0b"/>
    </linearGradient>
    <filter id="softShadow" x="-20%" y="-20%" width="140%" height="140%">
      <feDropShadow dx="0" dy="4" stdDeviation="4" flood-color="#0f172a" flood-opacity="0.24"/>
    </filter>
  </defs>
  <rect width="64" height="64" rx="16" fill="#f8fafc"/>
  <path
    d="M15 42.5V21.5c0-3.6 2.9-6.5 6.5-6.5h21c3.6 0 6.5 2.9 6.5 6.5v21c0 3.6-2.9 6.5-6.5 6.5h-21c-3.6 0-6.5-2.9-6.5-6.5Z"
    fill="url(#markGradient)"
    filter="url(#softShadow)"
  />
  <path d="M24 43V21h8.3c7.1 0 12 4.4 12 11s-4.9 11-12 11H24Zm5.8-5h2.3c3.8 0 6.3-2.4 6.3-6s-2.5-6-6.3-6h-2.3v12Z" fill="#ffffff"/>
  <path d="M18.8 41.5 45.2 18.9" fill="none" stroke="#ffffff" stroke-width="3.4" stroke-linecap="round" opacity="0.34"/>
</svg>
